<?xml version="1.0" encoding="utf-8"?>
<!-- Generator: Adobe Illustrator 24.0.1, SVG Export Plug-In . SVG Version: 6.00 Build 0)  -->
<svg version="1.1" id="Layer_1" xmlns="http://www.w3.org/2000/svg" xmlns:xlink="http://www.w3.org/1999/xlink" x="0px" y="0px"
	 viewBox="0 0 24 24" style="enable-background:new 0 0 24 24;" xml:space="preserve">
<path d="M12.16,0.04c-6.62,0-12,5.38-12,12c0,6.32,4.91,11.51,11.11,11.97c0.29,0.02,0.58,0.03,0.89,0.03c2.14,0,3.88-0.42,3.88-3.8
	c0-2.56-1-4.75-2.41-5.67c1.5-0.57,2.53-2.04,2.53-3.77c0-0.54-0.11-1-0.3-1.4c0.53-1.41,0.56-2.64,0.56-2.64l-2.53,1.05
	c-0.53-0.17-1.13-0.25-1.76-0.25c-0.66,0-1.29,0.09-1.84,0.28L7.85,6.68c0,0-0.1,1.41,0.47,2.92c-0.14,0.35-0.21,0.75-0.21,1.21
	c0,1.7,1.1,3.15,2.62,3.74c-1.44,0.9-2.45,3.11-2.45,5.69c0,0.43,0.03,0.82,0.08,1.16c-3.69-1.5-6.3-5.13-6.3-9.36
	c0-5.57,4.53-10.1,10.1-10.1s10.1,4.53,10.1,10.1c0,0.52,0.42,0.95,0.95,0.95c0.52,0,0.95-0.42,0.95-0.95
	C24.16,5.42,18.77,0.04,12.16,0.04z"/>
</svg>
