<?xml version="1.0" encoding="utf-8"?>
<!-- Generator: Adobe Illustrator 24.0.1, SVG Export Plug-In . SVG Version: 6.00 Build 0)  -->
<svg version="1.1" id="Layer_1" xmlns="http://www.w3.org/2000/svg" xmlns:xlink="http://www.w3.org/1999/xlink" x="0px" y="0px"
	 viewBox="0 0 128 128" style="enable-background:new 0 0 128 128;" xml:space="preserve">
<style type="text/css">
	.st0{fill:#FFFFFF;stroke:#FFFFFF;stroke-miterlimit:10;}
</style>
<path class="st0" d="M63.77,1.28c-34.46,0-62.5,28.04-62.5,62.5c0,32.9,25.56,59.95,57.87,62.33c1.49,0.13,3.04,0.17,4.63,0.17
	c11.17,0,20.23-2.18,20.23-19.79c0-13.33-5.19-24.74-12.56-29.51C79.25,74,84.61,66.34,84.61,57.36c0-2.8-0.55-5.23-1.55-7.31
	c2.74-7.36,2.93-13.74,2.93-13.74L72.8,41.79c-2.77-0.87-5.88-1.3-9.16-1.3c-3.46,0-6.72,0.48-9.59,1.45l-12.72-6.08
	c0,0-0.51,7.36,2.45,15.22c-0.71,1.84-1.11,3.93-1.11,6.28c0,8.85,5.75,16.42,13.64,19.5c-7.48,4.68-12.77,16.18-12.77,29.64
	c0,2.26,0.15,4.26,0.43,6.04C24.74,104.7,11.15,85.8,11.15,63.78c0-29.02,23.61-52.62,52.62-52.62s52.62,23.61,52.62,52.62
	c0,2.73,2.21,4.94,4.94,4.94s4.94-2.21,4.94-4.94C126.27,29.32,98.23,1.28,63.77,1.28z"/>
</svg>
